<svg width="88" height="40" viewBox="0 0 88 40" fill="none" xmlns="http://www.w3.org/2000/svg">
<path d="M41.7388 25.8508H39.7537V29.7776H37.0836V17.3477H41.7388C43.1285 17.3477 44.2401 17.7414 45.0838 18.5188C45.9176 19.3062 46.3345 20.3297 46.3345 21.5894C46.3345 22.8491 45.9176 23.8923 45.0838 24.6698C44.2501 25.4473 43.1384 25.841 41.7388 25.841V25.8508ZM43.6644 21.5993C43.6644 20.9694 43.4759 20.4675 43.1086 20.0935C42.7314 19.7195 42.2054 19.5325 41.5304 19.5325H39.7636V23.666H41.5304C42.2153 23.666 42.7413 23.479 43.1086 23.1149C43.4858 22.7409 43.6644 22.239 43.6644 21.5993Z" fill="#4D4D4D"/>
<path d="M47.0789 29.7776V16.7867H49.6596V29.7677H47.0789V29.7776Z" fill="#4D4D4D"/>
<path d="M53.2925 25.713C53.4016 26.3822 53.7193 26.9235 54.2354 27.3369C54.7516 27.7502 55.3769 27.9569 56.1114 27.9569C57.1337 27.9569 58.0568 27.5534 58.8708 26.7562L60.4192 28.2423C59.3373 29.4134 57.898 29.9941 56.1114 29.9941C55.3173 29.9941 54.5828 29.8662 53.9079 29.6004C53.223 29.3446 52.6473 28.9804 52.1808 28.5277C51.7143 28.075 51.347 27.5436 51.079 26.9235C50.811 26.3035 50.682 25.6441 50.682 24.9454C50.682 24.2466 50.8209 23.5872 51.0889 22.9672C51.3569 22.3472 51.7242 21.8059 52.1907 21.3631C52.6572 20.9103 53.223 20.5561 53.8781 20.2903C54.5332 20.0246 55.2379 19.8967 55.9724 19.8967C56.9452 19.8967 57.8186 20.1132 58.6028 20.5561C59.3869 20.9891 59.9924 21.5796 60.4291 22.3275C60.8658 23.0656 61.0743 23.8923 61.0743 24.7781C61.0743 25.1028 61.0346 25.4079 60.9651 25.713H53.3024H53.2925ZM55.9526 21.9437C55.3471 21.9437 54.8012 22.1209 54.3347 22.4752C53.8582 22.8295 53.5406 23.3018 53.3619 23.8923H58.4142C58.2653 23.3117 57.9774 22.8393 57.5407 22.485C57.104 22.1307 56.5779 21.9536 55.9526 21.9536V21.9437Z" fill="#4D4D4D"/>
<path d="M62.2455 18.6074C61.9477 18.322 61.8088 17.9677 61.8088 17.5544C61.8088 17.141 61.9577 16.7867 62.2455 16.5013C62.5433 16.2159 62.9006 16.0683 63.3373 16.0683C63.7741 16.0683 64.1314 16.2159 64.4292 16.5013C64.727 16.7867 64.8659 17.141 64.8659 17.5544C64.8659 17.9677 64.717 18.322 64.4292 18.6074C64.1314 18.8928 63.7741 19.0404 63.3373 19.0404C62.9006 19.0404 62.5433 18.8928 62.2455 18.6074ZM62.0371 29.7776V20.123H64.6178V29.7776H62.0371Z" fill="#4D4D4D"/>
<path d="M65.7692 29.7776V27.701L70.3946 22.3472H66.0173V20.1329H73.5311V22.2094L68.9057 27.5632H73.7197V29.7776H65.7692Z" fill="#4D4D4D"/>
<path d="M78.1268 22.3472V26.4315C78.1268 26.894 78.2459 27.2385 78.4742 27.455C78.7025 27.6715 79.0797 27.7797 79.6156 27.7797C79.9432 27.7797 80.2509 27.7601 80.5387 27.7305V29.876C80.1318 29.9646 79.6851 30.0039 79.1988 30.0039C76.7669 30.0039 75.556 28.8722 75.556 26.5988V22.3571H74.0473V20.1329H75.556V17.5642L78.1367 17.3379V20.1329H80.4296V22.3571H78.1367L78.1268 22.3472Z" fill="#4D4D4D"/>
<path d="M24.8551 26.5495L18.4232 30.6436C16.4876 31.8738 17.6291 33.3008 18.5026 33.7536C19.4058 34.1767 24.6466 35.6038 28.2695 36.5584C30.2746 37.0898 30.6716 35.5939 29.8577 34.4228L24.8551 26.5495Z" fill="#FF007E"/>
<path d="M15.9417 32.671L7.21691 16.7868C6.51218 15.3991 6.30374 14.1099 8.17972 12.8009L17.9566 5.63628C22.6813 2.25078 28.3191 2.68381 31.1281 6.38424C35.158 11.679 33.7982 19.257 28.1603 22.8492L16.9243 30.004C15.4851 30.9192 15.4752 31.9231 15.9218 32.6809L15.9417 32.671Z" fill="#00F2D7"/>
</svg>
